sit_stand0002_filtered
version=1
nRows=60
nColumns=19
inDegrees=no
endheader
time	ground_force_r_vx	ground_force_r_vy	ground_force_r_vz	ground_force_r_px	ground_force_r_py	ground_force_r_pz	ground_torque_r_x	ground_torque_r_y	ground_torque_r_z	ground_force_l_vx	ground_force_l_vy	ground_force_l_vz	ground_force_l_px	ground_force_l_py	ground_force_l_pz	ground_torque_l_x	ground_torque_l_y	ground_torque_l_z
1.9916666666666667	-0.457764	4.730225	52.79541	-6.317139	2.624512	0.50354	-49.683454	-119.937645	0.0	-13.885498	1.373291	44.250488	7.415771	2.868652	1.739502	-63.831293	167.487672	0.0
1.9933333333333332	-1.678467	5.0354	53.405762	-6.317139	2.258301	0.50354	-42.185929	-118.585071	0.0	-12.054443	2.89917	44.86084	7.232666	3.234863	1.556396	-71.255697	161.019303	0.0
1.995	-1.678467	3.204346	53.405762	-6.68335	2.258301	0.778198	-42.185929	-125.333357	0.0	-13.275146	1.678467	46.081543	7.415771	3.479004	1.678467	-74.582036	160.811507	0.0
1.9966666666666666	-0.762939	5.645752	55.847168	-6.500244	2.380371	0.595093	-42.579577	-116.714413	0.0	-12.664795	1.373291	46.691895	7.781982	3.479004	1.739502	-73.648611	166.573284	0.0
1.998333333333333	-0.762939	4.730225	56.45752	-7.049561	2.502441	0.411987	-44.281419	-125.130878	0.0	-13.275146	0.762939	49.743652	6.866455	3.479004	1.739502	-69.091334	137.988113	0.0
2.0	-1.373291	5.645752	57.678223	-6.68335	2.380371	0.50354	-41.194246	-116.183796	0.0	-14.801025	1.068115	49.743652	7.965088	3.356934	1.861572	-66.539954	160.054525	0.0
2.0016666666666665	-1.678467	5.645752	57.067871	-6.68335	2.01416	0.686646	-35.200735	-117.426404	0.0	-15.106201	1.678467	47.912598	8.331299	3.601074	1.739502	-74.158201	173.774124	0.0
2.0033333333333334	-2.593994	3.814697	60.119629	-7.049561	2.868652	0.50354	-47.578744	-117.460343	0.0	-15.106201	1.983643	51.574707	8.148193	3.967285	2.044678	-75.993121	157.86605	0.0
2.005	-0.762939	5.950928	61.340332	-7.415771	2.746582	0.961304	-44.736629	-121.203545	0.0	-14.801025	2.593994	52.79541	8.331299	4.089355	1.983643	-76.566546	157.647471	0.0
2.0066666666666664	-1.068115	4.730225	64.393997	-7.049561	3.112793	0.411987	-48.287136	-109.708658	0.0	-15.411377	1.373291	54.016113	8.331299	4.455566	1.922607	-81.580014	154.156568	0.0
2.0083333333333333	-1.068115	5.0354	64.393997	-7.965088	3.479004	0.686646	-53.974171	-123.941293	0.0	-16.021729	2.89917	54.626465	9.063721	4.333496	1.800537	-78.398394	165.753282	0.0
2.01	-1.068115	5.0354	65.004349	-7.965088	3.234863	0.778198	-49.711628	-122.777559	0.0	-15.716553	1.983643	57.067871	8.69751	4.455566	2.044678	-77.200468	152.296056	0.0
2.0116666666666667	0.152588	5.0354	65.6147	-8.148193	3.723145	0.686646	-56.74992	-124.426092	0.0	-16.326904	1.373291	58.898926	9.246826	4.089355	1.922607	-68.549935	156.92079	0.0
2.013333333333333	-0.762939	4.730225	67.445755	-8.331299	3.723145	0.961304	-55.166143	-123.748593	0.0	-16.021729	2.593994	57.067871	9.979248	4.455566	1.861572	-77.183489	174.721992	0.0
2.015	-0.152588	4.119873	70.497513	-7.965088	3.356934	0.595093	-47.610887	-113.169503	0.0	-15.716553	2.89917	59.509277	9.613037	4.943848	1.983643	-82.238397	161.383782	0.0
2.0166666666666666	0.762939	4.730225	71.107864	-8.148193	3.845215	1.144409	-54.109868	-114.800408	0.0	-16.326904	3.204346	62.561035	10.71167	5.065918	2.044678	-80.147012	171.05689	0.0
2.018333333333333	0.762939	4.119873	74.159622	-8.880615	3.723145	1.327515	-50.237134	-119.926391	0.0	-16.326904	1.983643	60.119629	10.71167	5.065918	1.800537	-83.401713	178.06783	0.0
2.02	1.068115	3.814697	78.432083	-9.063721	4.089355	0.961304	-52.182048	-115.715814	0.0	-15.716553	3.204346	64.393997	10.71167	4.943848	1.983643	-76.000059	166.187791	0.0
2.0216666666666665	2.288818	3.204346	79.652786	-9.246826	4.577637	1.052856	-57.561122	-116.216901	0.0	-15.106201	2.593994	67.445755	11.444092	5.67627	1.800537	-83.449393	169.556347	0.0
2.0233333333333334	2.593994	3.204346	81.483841	-10.162354	4.089355	0.869751	-50.287166	-124.841038	0.0	-16.63208	3.814697	69.887161	11.627197	5.554199	1.922607	-78.718212	166.197702	0.0
2.025	1.983643	4.425049	83.314896	-10.345459	4.943848	1.419067	-59.414894	-124.341613	0.0	-16.021729	2.89917	70.497513	11.077881	5.554199	1.800537	-78.064176	157.008035	0.0
2.0266666666666664	3.509521	3.204346	83.925247	-10.894775	5.065918	1.327515	-60.495034	-129.936456	0.0	-16.021729	4.119873	73.549271	12.176514	5.92041	1.739502	-79.804206	165.378024	0.0
2.0283333333333333	3.509521	4.119873	91.249466	-11.077881	5.432129	1.327515	-59.652641	-121.545494	0.0	-15.106201	4.119873	74.769974	12.359619	5.79834	1.983643	-76.907579	165.126961	0.0
2.03	4.425049	3.814697	90.028763	-11.444092	5.432129	1.785278	-60.493761	-127.250482	0.0	-15.411377	3.814697	75.990677	12.542725	6.04248	1.739502	-78.872167	164.896714	0.0
2.0316666666666667	4.119873	2.593994	94.301224	-11.627197	5.432129	0.961304	-57.742724	-123.385813	0.0	-14.49585	3.509521	77.821732	12.908936	6.408691	1.922607	-81.759516	165.735105	0.0
2.033333333333333	5.0354	2.89917	97.352982	-12.176514	6.04248	1.785278	-62.23197	-125.170471	0.0	-15.106201	4.730225	81.483841	13.092041	6.774902	1.678467	-82.555511	160.486084	0.0
2.0349999999999997	5.0354	3.509521	99.184036	-12.176514	5.92041	1.693726	-59.852349	-122.879214	0.0	-15.106201	4.425049	83.314896	12.908936	6.774902	1.800537	-80.741146	154.772876	0.0
2.0366666666666666	6.866455	4.119873	102.846146	-13.092041	6.530762	1.968384	-63.712283	-127.424528	0.0	-15.411377	4.119873	83.314896	13.275146	6.896973	1.556396	-82.194684	159.18001	0.0
2.038333333333333	6.561279	2.288818	108.33931	-13.824463	6.652832	1.785278	-61.599655	-127.670464	0.0	-14.190674	4.425049	86.977005	14.190674	6.774902	1.617432	-77.375014	162.992785	0.0
2.04	6.256104	2.593994	110.170364	-14.373779	6.774902	1.785278	-61.675075	-130.543412	0.0	-15.106201	4.730225	88.197708	14.73999	7.263184	1.678467	-81.807357	166.954132	0.0
2.0416666666666665	7.171631	2.288818	113.222122	-14.556885	7.141113	2.059937	-63.272822	-128.633446	0.0	-14.190674	5.0354	88.80806	15.655518	7.263184	1.373291	-81.277851	176.104852	0.0
2.0433333333333334	7.476807	1.983643	118.104935	-14.190674	7.263184	2.151489	-61.698713	-120.206424	0.0	-13.885498	5.0354	94.301224	15.655518	7.507324	1.434326	-79.142534	165.846524	0.0
2.045	9.002686	2.593994	119.325638	-14.923096	7.629395	2.700806	-64.177139	-125.13096	0.0	-13.275146	5.340576	93.690872	15.838623	7.751465	1.495361	-82.284603	168.870951	0.0
2.0466666666666664	8.69751	1.983643	122.987747	-15.655518	7.995605	2.609253	-65.23593	-127.34452	0.0	-12.969971	4.730225	96.74263	16.571045	7.873535	1.312256	-80.960746	171.134757	0.0
2.0483333333333333	10.223389	2.288818	126.039505	-16.571045	8.361816	2.059937	-66.600354	-131.532664	0.0	-13.885498	5.645752	101.015091	17.303467	8.361816	1.434326	-82.341459	171.118408	0.0
2.05	9.613037	3.204346	126.039505	-16.387939	8.605957	2.792358	-68.521996	-130.102965	0.0	-12.359619	5.950928	101.015091	16.204834	8.239746	1.434326	-81.180982	160.232888	0.0
2.0516666666666667	12.359619	2.89917	132.143021	-17.120361	8.850098	2.975464	-67.270594	-129.628989	0.0	-12.054443	6.256104	104.066849	17.486572	8.605957	1.373291	-82.32866	167.841242	0.0
2.0533333333333332	12.969971	2.593994	135.80513	-17.852783	9.216309	3.158569	-68.167441	-131.519473	0.0	-11.138916	7.171631	107.118607	17.486572	8.605957	1.312256	-80.010292	163.032389	0.0
2.0549999999999997	12.359619	1.068115	137.025833	-17.852783	8.850098	2.609253	-64.873457	-130.312468	0.0	-11.749268	6.256104	108.949661	17.669678	8.972168	1.12915	-82.009103	161.99972	0.0
2.0566666666666666	14.49585	2.593994	142.518997	-18.585205	9.460449	2.975464	-66.703203	-130.462895	0.0	-11.444092	6.866455	112.001419	18.768311	8.850098	1.12915	-78.693312	167.377429	0.0
2.058333333333333	16.63208	1.373291	146.181107	-19.135094	10.070801	3.158569	-69.253872	-130.929737	0.0	-9.918213	7.476807	112.611771	18.768311	9.338379	0.946045	-82.645789	166.453041	0.0
2.06	16.021729	1.068115	149.843216	-19.501305	10.070801	3.341675	-67.548402	-130.16736	0.0	-10.223389	6.561279	117.494583	19.867516	9.216309	1.12915	-78.164023	168.915732	0.0
2.0616666666666665	18.463135	0.762939	153.505325	-20.599937	10.314941	3.52478	-67.577863	-134.212671	0.0	-10.528564	7.476807	120.546341	20.599937	9.70459	0.88501	-80.22775	170.691192	0.0
2.0633333333333335	18.768311	1.373291	158.388138	-21.515465	11.169434	3.890991	-70.895606	-135.867656	0.0	-9.002686	7.171631	121.767044	20.966148	9.58252	0.823975	-78.46077	171.995457	0.0
2.065	19.683838	0.762939	160.829544	-20.783043	10.925293	3.890991	-68.31947	-129.239098	0.0	-8.087158	7.781982	124.818802	21.515465	9.94873	0.823975	-79.499671	172.175639	0.0
2.0666666666666664	20.904541	1.068115	164.491653	-21.69857	12.023926	4.165649	-73.50098	-131.933512	0.0	-8.087158	8.392334	129.701614	22.064781	10.314941	0.823975	-79.330275	169.914119	0.0
2.0683333333333334	22.125244	0.762939	169.984818	-22.247887	12.268066	3.890991	-72.5848	-130.895861	0.0	-6.866455	8.392334	133.363724	22.797203	10.559082	0.579834	-79.011599	170.740264	0.0
2.07	23.040771	0.762939	173.646927	-22.980309	12.268066	4.53186	-71.07077	-132.353225	0.0	-6.256104	8.69751	135.80513	22.614098	10.681152	0.457764	-78.504319	166.315389	0.0
2.0716666666666668	23.345947	0.457764	178.529739	-23.71273	12.756729	4.348755	-71.869553	-132.83044	0.0	-4.730225	8.69751	136.415482	22.797203	11.169434	0.274658	-81.767956	166.913522	0.0
2.0733333333333333	24.56665	1.068115	184.022903	-23.895836	13.12294	4.440308	-71.735305	-129.870938	0.0	-5.0354	9.613037	144.960403	24.445152	11.047363	0.457764	-76.099236	168.422758	0.0
2.0749999999999997	25.482178	-0.152588	184.022903	-24.445152	13.733292	4.806519	-75.067816	-132.834921	0.0	-4.119873	9.613037	143.7397	24.994469	11.047363	0.274658	-76.765728	173.674686	0.0
2.0766666666666667	26.092529	0.762939	190.738678	-25.36068	13.977432	4.53186	-73.714866	-132.973041	0.0	-2.593994	9.613037	149.843216	25.177574	12.023926	0.091553	-80.188414	167.822431	0.0
2.078333333333333	26.702881	-1.678467	193.790436	-26.642418	14.709854	5.172729	-76.343477	-137.453062	0.0	-1.373291	10.223389	155.33638	26.459312	11.779785	-0.091553	-75.80597	170.126619	0.0
2.08	27.923584	-0.762939	196.231842	-26.276207	14.831924	5.081177	-76.035478	-133.891546	0.0	-0.762939	10.528564	157.777786	27.191734	12.023926	-0.030518	-76.192623	172.1301	0.0
2.0816666666666666	29.144287	-1.068115	201.114655	-26.825523	14.831924	5.355835	-74.208702	-133.367368	0.0	0.457764	12.054443	159.608841	27.191734	12.023926	-0.457764	-75.342814	170.125046	0.0
2.083333333333333	28.839111	-1.983643	206.607819	-27.924156	15.076065	5.53894	-73.412659	-135.124887	0.0	1.983643	10.528564	166.322708	27.924156	12.390137	-0.640869	-74.532425	167.690439	0.0
2.085	29.144287	-1.983643	209.049225	-27.924156	15.808487	5.264282	-76.063521	-133.546815	0.0	3.204346	11.444092	166.322708	28.290367	12.634659	-0.823975	-76.025894	169.874772	0.0
2.0866666666666664	29.449463	-0.457764	212.100983	-29.022789	15.442276	5.447388	-73.247082	-136.827917	0.0	4.730225	11.138916	168.153763	29.205894	12.756729	-0.946045	-75.952791	173.475324	0.0
2.0883333333333334	30.670166	-2.288818	215.763092	-29.022789	16.418839	5.630493	-76.547922	-134.478616	0.0	6.866455	11.138916	173.646927	29.389	13.24501	-0.88501	-76.401072	169.042058	0.0
2.09	31.586647	-1.678467	216.983795	-29.572105	16.174698	5.722046	-75.005534	-136.262601	0.0	7.476807	11.444092	176.088333	30.304527	13.367081	-1.12915	-76.046035	171.892094	0.0
